# xmcd
#
# Track frame offsets:
#	150
#	21857
#	35445
#	47642
#	60252
#	73377
#	89280
#	106117
#	119445
#	133575
#
# Disc length: 1920
#
# Revision: 1
# Processed by: cddbd v1.5.1PL0 Copyright (c) Steve Scherf et al.
# Submitted via: CDex 1.50Beta3
# Normalized: r0:DSETVAR1,TDELIM( - ),TSWAP
#
DISCID=83077e0a
DTITLE=Various Artist - Blues Essentials
DYEAR=1996
DGENRE=Blues
TTITLE0=Freddie King - 01. Hide Away
TTITLE1=Lightnin' Hopkins - 02. Katie Mae Blues
TTITLE2=Howlin' Wolf - 03. Moanin' At Midnight
TTITLE3=Elmore James - 04. Standing At The Crossroads
TTITLE4=T-Bone Walker - 05. Mean Old World
TTITLE5=Lowell Fulsom - 06. Black Nights
TTITLE6=Muddy Waters - 07. Walkin' Thru The Park
TTITLE7=Jonn Lee Hooker - 08. Come Back Baby
TTITLE8=Jimmy Rodgers - 09. That's All Right
TTITLE9=Memphis Slim - 10. How Long
EXTD=YEAR: 1996
EXTT0=
EXTT1=
EXTT2=
EXTT3=
EXTT4=
EXTT5=
EXTT6=
EXTT7=
EXTT8=
EXTT9=
PLAYORDER=
